<svg width="33" height="33" version="1.1" viewBox="0 0 33 33" xmlns="http://www.w3.org/2000/svg">
 <title>Монтажная область 44</title>
 <path d="m11.023 32.566c-0.77954 0.6521-1.944 0.52983-2.5711-0.26996-0.26859-0.32046-0.41442-0.72602-0.41137-1.1441 0.00248-0.54993 0.25281-1.0694 0.68135-1.4141l4.8722-3.9595c-2.6482-2.2625-7.1734-6.9162-7.1734-12.496 0-4.9751 3.5095-9.1917 6.4279-11.866 2.0674-1.8892 5.2346-1.8892 7.3019 0 2.944 2.674 6.4278 6.8906 6.4278 11.866 0 5.5537-4.4994 10.284-7.1862 12.509l4.8722 3.9466c1.8855 1.517-0.38996 4.3451-2.2755 2.8283l-5.4378-4.5122zm11.956-19.283c0-3.8566-3.3038-7.3919-5.2579-9.1789-0.68346-0.62741-1.7334-0.62741-2.4168 0-1.9155 1.787-5.1808 5.3351-5.1808 9.1789 0 4.4994 4.4095 8.5619 6.4278 10.207 2.0569-1.6455 6.4278-5.7208 6.4278-10.207zm-8.2919-5.078c0.02305-1.6107 1.9688-2.404 3.1116-1.2691 1.1428 1.135 0.36296 3.0861-1.2475 3.1202-1.0214 0.0074-1.8473-0.83002-1.8254-1.8512z" stroke-linecap="square" stroke-width="3" style="paint-order:stroke fill markers"/>
</svg>
