<svg width="36" height="36" version="1.1" viewBox="0 0 36 36" xmlns="http://www.w3.org/2000/svg">
 <title>Монтажная область 44</title>
 <g transform="matrix(0 .88235 -.88235 0 37.412 -1.4118)" fill="#0d0d0d" stroke-width="1.1333">
  <path d="m19.51 17c-3 0-5.75 2.57-7.14 4.09a1.39 1.39 0 0 0 0 1.88c1.39 1.49 4.15 4.03 7.14 4.03 3.5 0 6.66-3.43 7.94-5-1.28-1.6-4.45-5-7.94-5zm-3.95 6.45a1.42 1.42 0 1 1 1.44-1.45 1.41 1.41 0 0 1-1.44 1.42z"/>
  <path d="m35.22 5h-26.44a3.79 3.79 0 0 0-3.78 3.78v26.44a3.79 3.79 0 0 0 3.78 3.78h26.44a3.79 3.79 0 0 0 3.78-3.78v-26.44a3.79 3.79 0 0 0-3.78-3.78zm-0.71 21.3a1.4 1.4 0 0 1-0.21 2 1.37 1.37 0 0 1-0.89 0.32 1.42 1.42 0 0 1-1.1-0.53l-3.08-3.79c-1.76 2.06-5.38 5.58-9.72 5.58-3.87 0-7.15-2.73-9.23-5a4.21 4.21 0 0 1 0-5.68c2.08-2.29 5.36-5 9.23-5 4.32 0 8 3.5 9.73 5.59l3.07-3.79a1.4118 1.4118 0 0 1 2.2 1.77l-3.51 4.23z"/>
 </g>
</svg>
