<svg width="56.9" height="56.9" version="1.1" viewBox="0 0 56.9 56.9" xmlns="http://www.w3.org/2000/svg">
 <g transform="translate(-21.6,-21.5)">
  <path d="m69.2 21.5h-38.4c-5.1 0-9.2 4.1-9.2 9.2v38.5c0 5.1 4.1 9.2 9.2 9.2h38.5c5.1 0 9.2-4.1 9.2-9.2v-38.4c0-5.1-4.2-9.3-9.3-9.3zm-38.4 7h38.5c1.3 0 2.3 1 2.3 2.3v12.2l-7.2-5c-1.4-0.9-3.2-0.8-4.4 0.4l-12.3 12.3-5.9-4.7c-1.4-1.1-3.5-1-4.7 0.4l-8.6 9.3v-25c0-1.2 1-2.2 2.3-2.2zm38.4 43h-38.4c-1.3 0-2.3-1-2.3-2.3v-3.2l11.5-12.5 5.8 4.6c1.4 1.1 3.3 1 4.6-0.3l12.5-12.4 8.7 5.9v17.9c-0.1 1.3-1.1 2.3-2.4 2.3z"/>
 </g>
</svg>
