<svg width="24" height="24" fill="none" version="1.1" viewBox="0 0 24 24" xmlns="http://www.w3.org/2000/svg">
 <path d="m12 15c1.6569 0 3-1.3431 3-3s-1.3431-3-3-3-3 1.3431-3 3 1.3431 3 3 3z" stroke="#0d0d0d" stroke-linecap="round" stroke-linejoin="round" stroke-width="1.5"/>
 <path d="M19.6224 10.3954L18.5247 7.7448L20 6L18 4L16.2647 5.48295L13.5578 4.36974L12.9353 2H10.981L10.3491 4.40113L7.70441 5.51596L6 4L4 6L5.45337 7.78885L4.3725 10.4463L2 11V13L4.40111 13.6555L5.51575 16.2997L4 18L6 20L7.79116 18.5403L10.397 19.6123L11 22H13L13.6045 19.6132L16.2551 18.5155C16.6969 18.8313 18 20 18 20L20 18L18.5159 16.2494L19.6139 13.598L21.9999 12.9772L22 11L19.6224 10.3954Z" stroke="#0d0d0d" stroke-linecap="round" stroke-linejoin="round" stroke-width="1.5"/>
</svg>
