<svg width="56.444mm" height="56.444mm" version="1.1" viewBox="0 0 200 200" xmlns="http://www.w3.org/2000/svg">
 <g transform="translate(-296.35 -409.28)" fill="#fff">
  <circle cx="396.35" cy="493.12" r="9.3821"/>
  <g transform="translate(3.2923e-6 -2.2935e-6)">
   <path d="m346.75 523.7c0-5.88 2.88-10.74 8.64-14.58 5.88-3.84 13.26-5.76 22.14-5.76h4.32c6.6664-0.10549 5.2761 7.2991 0.72 7.38h-4.32c-6.72 0-12.3 1.32-16.74 3.96-4.44 2.52-6.66 5.7-6.66 9.54 0 3.24 2.04 6.12 6.12 8.64 4.08 2.4 10.92 3.6 20.52 3.6h8.64c3.24 0 4.86 1.2 4.86 3.6 0 2.52-1.6651 4.3186-4.86 3.78l-25.98-4.38c-13.581-3.5867-17.4-9.66-17.4-15.78z" stroke="#fff" stroke-width="2.8"/>
   <path d="m432.56 495.99c-15.802-0.23911-38.881 25.918-44.878 45.509 0 0-3.6989 27.714 6.2572 30.94 9.9561 3.2268-9.8605-27.104 15.092-40.396 9.8884 5.3619 21.705 6.9451 32.329-0.1216 3.9853-2.6433 5.9799-6.9334 5.9799-12.871 0-2.2773-0.16322-4.3312-0.48854-6.1612-2.2435-11.994-7.6194-16.8-14.292-16.901zm-4.4225 11.612a10.248 10.248 0 0 1 10.249 10.249 10.248 10.248 0 0 1-10.249 10.247 10.248 10.248 0 0 1-10.247-10.247 10.248 10.248 0 0 1 10.247-10.249z"/>
  </g>
  <path d="m367.94 477.06c-1.392-2.3761-1.0998-20.739-1.0998-20.739 0-2.88 1.26-4.32 3.78-4.32 2.4 0 3.6 1.44 3.6 4.32 1.3038 29.515 21.072 7.1323 21.06-5.4 0-2.88 1.2-4.32 3.6-4.32s3.2038 1.4674 3.6 4.32c4.5438 32.717 15.981 22.605 16.02-1.08 0-1.2 0.36-2.16 1.08-2.88s1.62-1.08 2.7-1.08c2.4 0 3.6 1.38 3.6 4.14 0 9.12-0.48 15.72-1.44 19.8-0.84 4.08-2.1 6.66-3.78 7.74-1.56 0.96-4.32 1.44-27.36 1.44-20.982-0.0823-23.968 0.43523-25.36-1.9408z"/>
 </g>
</svg>
